HIERARCHY
ROOT Hips
{
	OFFSET -14.64140 90.27770 -84.91600
	CHANNELS 6 Xposition Yposition Zposition Zrotation Xrotation Yrotation
	JOINT Spine
	{
		OFFSET 0.00000 13.20850 -1.60436
		CHANNELS 3 Zrotation Xrotation Yrotation
		JOINT Spine1
		{
			OFFSET 0.00000 8.61716 0.00000
			CHANNELS 3 Zrotation Xrotation Yrotation
			JOINT Spine2
			{
				OFFSET 0.00000 8.61717 0.00000
				CHANNELS 3 Zrotation Xrotation Yrotation
				JOINT Spine3
				{
					OFFSET 0.00000 8.61717 0.00000
					CHANNELS 3 Zrotation Xrotation Yrotation
					JOINT Neck
					{
						OFFSET 0.00000 11.07920 1.10792
						CHANNELS 3 Zrotation Xrotation Yrotation
						JOINT Neck1
						{
							OFFSET 0.00000 7.08032 0.00000
							CHANNELS 3 Zrotation Xrotation Yrotation
							JOINT Head
							{
								OFFSET 0.00000 7.08031 0.00000
								CHANNELS 3 Zrotation Xrotation Yrotation
								End site
								{
									OFFSET 0.00000 0.00000 0.00000
								}
							}
						}
					}
					JOINT RightShoulder
					{
						OFFSET -0.01000 7.91373 5.19711
						CHANNELS 3 Zrotation Xrotation Yrotation
						JOINT RightArm
						{
							OFFSET -18.41580 0.00000 0.00000
							CHANNELS 3 Zrotation Xrotation Yrotation
							JOINT RightForeArm
							{
								OFFSET -29.11090 0.00000 0.00000
								CHANNELS 3 Zrotation Xrotation Yrotation
								JOINT RightHand
								{
									OFFSET -24.65040 0.00000 0.00000
									CHANNELS 3 Zrotation Xrotation Yrotation
									JOINT RightHandThumb1
									{
										OFFSET -5.35114 -0.85590 3.97906
										CHANNELS 3 Zrotation Xrotation Yrotation
										JOINT RightHandThumb2
										{
											OFFSET -4.52789 0.00000 0.00000
											CHANNELS 3 Zrotation Xrotation Yrotation
											JOINT RightHandThumb3
											{
												OFFSET -2.46976 0.00000 0.00000
												CHANNELS 3 Zrotation Xrotation Yrotation
												End site
												{
													OFFSET 0.00000 0.00000 0.00000
												}
											}
										}
									}
									JOINT RightHandIndex1
									{
										OFFSET -14.26970 0.00000 2.88139
										CHANNELS 3 Zrotation Xrotation Yrotation
										JOINT RightHandIndex2
										{
											OFFSET -5.48836 0.00000 0.00000
											CHANNELS 3 Zrotation Xrotation Yrotation
											JOINT RightHandIndex3
											{
												OFFSET -3.01859 0.00000 0.00000
												CHANNELS 3 Zrotation Xrotation Yrotation
												End site
												{
													OFFSET 0.00000 0.00000 0.00000
												}
											}
										}
									}
									JOINT RightHandMiddle1
									{
										OFFSET -14.26970 0.00000 -0.09147
										CHANNELS 3 Zrotation Xrotation Yrotation
										JOINT RightHandMiddle2
										{
											OFFSET -6.17441 0.00000 0.00000
											CHANNELS 3 Zrotation Xrotation Yrotation
											JOINT RightHandMiddle3
											{
												OFFSET -3.56743 0.00000 0.00000
												CHANNELS 3 Zrotation Xrotation Yrotation
												End site
												{
													OFFSET 0.00000 0.00000 0.00000
												}
											}
										}
									}
									JOINT RightHandRing1
									{
										OFFSET -12.69180 0.00000 -3.06433
										CHANNELS 3 Zrotation Xrotation Yrotation
										JOINT RightHandRing2
										{
											OFFSET -5.62556 0.00000 0.00000
											CHANNELS 3 Zrotation Xrotation Yrotation
											JOINT RightHandRing3
											{
												OFFSET -3.56744 0.00000 0.00000
												CHANNELS 3 Zrotation Xrotation Yrotation
												End site
												{
													OFFSET 0.00000 0.00000 0.00000
												}
											}
										}
									}
									JOINT RightHandPinky1
									{
										OFFSET -11.11390 0.00000 -6.03719
										CHANNELS 3 Zrotation Xrotation Yrotation
										JOINT RightHandPinky2
										{
											OFFSET -4.52789 0.00000 0.00000
											CHANNELS 3 Zrotation Xrotation Yrotation
											JOINT RightHandPinky3
											{
												OFFSET -2.46976 0.00000 0.00000
												CHANNELS 3 Zrotation Xrotation Yrotation
												End site
												{
													OFFSET 0.00000 0.00000 0.00000
												}
											}
										}
									}
								}
							}
						}
					}
					JOINT LeftShoulder
					{
						OFFSET 0.01000 7.91373 5.19711
						CHANNELS 3 Zrotation Xrotation Yrotation
						JOINT LeftArm
						{
							OFFSET 18.41580 0.00000 0.00000
							CHANNELS 3 Zrotation Xrotation Yrotation
							JOINT LeftForeArm
							{
								OFFSET 29.11090 0.00000 0.00000
								CHANNELS 3 Zrotation Xrotation Yrotation
								JOINT LeftHand
								{
									OFFSET 24.65040 0.00000 0.00000
									CHANNELS 3 Zrotation Xrotation Yrotation
									JOINT LeftHandThumb1
									{
										OFFSET 5.35114 -0.85590 3.97906
										CHANNELS 3 Zrotation Xrotation Yrotation
										JOINT LeftHandThumb2
										{
											OFFSET 4.52789 0.00000 0.00000
											CHANNELS 3 Zrotation Xrotation Yrotation
											JOINT LeftHandThumb3
											{
												OFFSET 2.46977 0.00000 0.00000
												CHANNELS 3 Zrotation Xrotation Yrotation
												End site
												{
													OFFSET 0.00000 0.00000 0.00000
												}
											}
										}
									}
									JOINT LeftHandIndex1
									{
										OFFSET 14.26970 0.00000 2.88139
										CHANNELS 3 Zrotation Xrotation Yrotation
										JOINT LeftHandIndex2
										{
											OFFSET 5.48836 0.00000 0.00000
											CHANNELS 3 Zrotation Xrotation Yrotation
											JOINT LeftHandIndex3
											{
												OFFSET 3.01859 0.00000 0.00000
												CHANNELS 3 Zrotation Xrotation Yrotation
												End site
												{
													OFFSET 0.00000 0.00000 0.00000
												}
											}
										}
									}
									JOINT LeftHandMiddle1
									{
										OFFSET 14.26970 0.00000 -0.09147
										CHANNELS 3 Zrotation Xrotation Yrotation
										JOINT LeftHandMiddle2
										{
											OFFSET 6.17440 0.00000 0.00000
											CHANNELS 3 Zrotation Xrotation Yrotation
											JOINT LeftHandMiddle3
											{
												OFFSET 3.56744 0.00000 0.00000
												CHANNELS 3 Zrotation Xrotation Yrotation
												End site
												{
													OFFSET 0.00000 0.00000 0.00000
												}
											}
										}
									}
									JOINT LeftHandRing1
									{
										OFFSET 12.69180 0.00000 -3.06433
										CHANNELS 3 Zrotation Xrotation Yrotation
										JOINT LeftHandRing2
										{
											OFFSET 5.62556 0.00000 0.00000
											CHANNELS 3 Zrotation Xrotation Yrotation
											JOINT LeftHandRing3
											{
												OFFSET 3.56744 0.00000 0.00000
												CHANNELS 3 Zrotation Xrotation Yrotation
												End site
												{
													OFFSET 0.00000 0.00000 0.00000
												}
											}
										}
									}
									JOINT LeftHandPinky1
									{
										OFFSET 11.11390 0.00000 -6.03719
										CHANNELS 3 Zrotation Xrotation Yrotation
										JOINT LeftHandPinky2
										{
											OFFSET 4.52789 0.00000 0.00000
											CHANNELS 3 Zrotation Xrotation Yrotation
											JOINT LeftHandPinky3
											{
												OFFSET 2.46976 0.00000 0.00000
												CHANNELS 3 Zrotation Xrotation Yrotation
												End site
												{
													OFFSET 0.00000 0.00000 0.00000
												}
											}
										}
									}
								}
							}
						}
					}
					JOINT pCube4
					{
						OFFSET 0.00000 10.91090 1.10792
						CHANNELS 3 Zrotation Xrotation Yrotation
						End site
						{
							OFFSET 0.00000 0.00000 0.00000
						}
					}
				}
			}
		}
	}
	JOINT RightUpLeg
	{
		OFFSET -9.98441 0.00000 0.00000
		CHANNELS 3 Zrotation Xrotation Yrotation
		JOINT RightLeg
		{
			OFFSET 0.00000 -42.11790 0.00000
			CHANNELS 3 Zrotation Xrotation Yrotation
			JOINT RightFoot
			{
				OFFSET 0.00000 -45.00020 -0.00001
				CHANNELS 3 Zrotation Xrotation Yrotation
				JOINT RightForeFoot
				{
					OFFSET 0.00000 -3.74820 0.00000
					CHANNELS 3 Zrotation Xrotation Yrotation
					JOINT RightToeBase
					{
						OFFSET 0.00000 0.06325 14.43120
						CHANNELS 3 Zrotation Xrotation Yrotation
						End site
						{
							OFFSET 0.00000 0.00000 0.00000
						}
					}
				}
			}
		}
	}
	JOINT LeftUpLeg
	{
		OFFSET 9.98441 0.00000 0.00000
		CHANNELS 3 Zrotation Xrotation Yrotation
		JOINT LeftLeg
		{
			OFFSET 0.00000 -42.11800 0.00000
			CHANNELS 3 Zrotation Xrotation Yrotation
			JOINT LeftFoot
			{
				OFFSET 0.00000 -45.00070 0.00000
				CHANNELS 3 Zrotation Xrotation Yrotation
				JOINT LeftForeFoot
				{
					OFFSET 0.00000 -3.74824 0.00000
					CHANNELS 3 Zrotation Xrotation Yrotation
					JOINT LeftToeBase
					{
						OFFSET 0.00000 0.06325 14.43110
						CHANNELS 3 Zrotation Xrotation Yrotation
						End site
						{
							OFFSET 0.00000 0.00000 0.00000
						}
					}
				}
			}
		}
	}
}
MOTION
Frames: 4
Frame Time: 0.050000
-0.023050458940605697 0.010051710770866171 0.005917867754248537 0.03280418512222553 0.022360181951488717 0.04657914803174727 5.881679000357543 3.014104954670005 -2.3318104637172348 -0.6686139696172804 3.461443555281485 0.39959710885657546 -0.4941446700837833 -1.0257259327897525 0.6036653890494256 -0.21360030343683087 -0.47876254569041865 -0.32014494493536316 0.2447576123948727 11.256425447309606 -1.6845538422992712 0.4226478905579279 -0.6579843070668546 -3.1841265191125587 1.043161933582582 -16.928813582118888 -0.34564109193824294 -9.289736976704491 3.307317219242855 -18.820883355198145 80.35597719151156 1.5623768050835414 -3.4182713673655347 0.5314783619994116 7.704861092045728 56.14285900390651 17.608259596936108 -0.344873204506406 -2.898851575295561 4.544898574928998 -0.14658262939249883 -1.594186855298036 -0.023800180846018988 0.021083091183712172 -56.24440908686171 0.01859676106742879 0.012064774966513734 -56.26493838406436 -38.75965480740851 0.017998100354544605 -0.030153407821575846 -0.01615046815257298 0.02034805447708523 0.027381615123460077 -0.025593244941027837 0.0065870391500176305 0.008853787951980503 -36.71935839552501 0.02861432703801711 0.0061699260982087485 -0.02106908284818223 -0.009873046567255427 -0.043429175777101786 0.022558802257071922 -0.021319715139734192 -0.02093272646953083 -19.71187318800181 0.02855650950407413 0.04215439661395689 -0.02943434739770478 -0.01991408603095043 -0.000996956117529364 -0.0019518116108583666 0.017475759709264904 0.03342885321172806 24.040776255115656 0.009443240243698199 -0.03683831712829616 28.905314226049068 -0.019977507012626305 -0.04409952634008569 28.90811666082779 0.03829247419144998 -0.02557645622709225 8.679356664587093 2.195520082046516 15.43285601574739 -75.6489656041714 15.31731712370968 -5.578433214576703 3.2301870851647636 8.313351805990795 -44.56124795188294 -19.98188985816696 -0.20480455355830438 1.0182919780887647 -0.46439350791649114 0.10296795216524976 -8.135704680237035 0.0031020576535770793 -0.045435724328874674 44.53210094487919 0.04632700741028077 0.020975676712923517 44.57070389462217 12.440845632899755 -0.028914220315362005 -0.022592179054769266 0.020831971276397483 -0.014884923936246179 0.03829119255644221 -0.022681210461129118 0.022811471613535743 -0.0235625488610977 11.072958150111212 0.015863808209137055 0.04099585293523796 -0.002481785099205447 0.006767268452035246 -0.0009058461580678851 0.015239427718379814 -0.008858466153505242 0.03873248164544631 4.742629340754168 0.0014871814658035624 0.005022814818040889 -0.022550627132160588 -0.027511861891759262 -0.018787536776088173 0.0220453164585301 -0.01724004326590693 0.031209037285444424 -5.599669113241616 -0.017009326003206347 -0.017151091104141498 -6.717250403132917 -0.021266169781004332 -0.023536389389096538 -6.710024209296216 0.03049043485337065 0.007333363940131064 0.005523968315297475 -0.04885713447297361 -0.04918202525557783 8.021638221017904 3.4450279341572183 -19.240447279078776 0.012858823706760867 10.414249201693604 -0.02107156890004958 -5.588247314606729 -15.639992478959671 3.207112146974832 0.04124597616567162 0.02286359436436396 -0.015882521533730428 0.04018986874724902 4.65079328912135 0.0027169370256546524 12.479366181536138 -8.277283708405518 6.894022513356559 0.002800346544320506 46.342292128143875 0.03441737720170742 -4.323751966230514 -14.721189612213884 -3.8242860425138128 -0.021105717445819135 0.030098598455905592 -0.028777847077192612 -0.006151411749951401 -10.738185493254662 0.038999692584083714 
-0.046987218885301135 -0.01043657710888843 -0.006516839162413225 -0.024953950709277 -0.02683358114071259 0.045458684860707275 5.745265370502378 3.0344314617320376 -2.3461497782510525 -0.6998816444597048 3.496149601749411 0.3645879018403883 -0.5150065691406017 -1.022204444232059 0.6898452352829051 -0.27669218792490063 -0.5337052938723272 -0.28559946044970486 0.206456764645019 11.495711955649838 -1.7376479589542566 0.41968436139213516 -0.5914675025833865 -3.306432004358902 1.063281650997131 -16.954810987993223 -0.34067340774785093 -9.488782990086486 3.3855673877373302 -18.99795586163212 79.30235911733784 1.1835313188021437 -3.496642616837653 1.572056249124954 7.308169581269472 59.11486133540745 17.247760055591517 -0.3599096784262138 -2.973012600389818 4.563967131444985 -0.13235751670156126 -1.5731937121751394 -0.045354793630831905 -0.02162090102245509 -56.259939304392816 -0.02981623744638031 0.001427574949402262 -56.25644734416193 -38.77870518211763 -0.020747319590392038 0.004189597686765716 -0.0414977576075119 0.005877926263912901 0.04706321476048845 -0.010940288270746957 -0.0464918022200334 -0.014608068573197172 -36.66390043339172 -0.010891208680475493 -0.02433070492084775 -0.01910643542849787 0.00592400248315008 0.0023430892832059886 -0.007751060668538817 0.03486033410439112 0.017109287662178063 -19.806624160930962 0.03019244372023693 -0.015177079578135896 0.0306879126428914 -0.04582079826118888 0.011960642889066892 0.0022321084959192133 0.0001237290105786326 0.017685647034701404 24.035860022641277 -0.025260086841083513 -0.03710121656664266 28.853066946586143 -0.019198001067535508 0.04275953214650004 28.90514739256372 0.03138518528470447 0.024493897909976674 8.796961928214692 2.2662337198908857 15.5632008900478 -75.00244795131317 14.366627067023133 -5.575384017736517 2.4126069927314733 8.161794875821156 -45.54749736660738 -19.85926436719506 -0.32264443541056653 0.9720225081352701 -0.4677421233034533 0.049177131053879136 -8.084268304439268 -0.024474377463606676 -0.033975016504939705 44.55964953523673 -0.012616902076630842 0.006628103063643011 44.59787716364203 12.440092617414965 0.044934326819793764 0.044663844644158436 -0.019614622463489127 0.025221107716905566 -0.004714620120755403 0.033474374088013216 -0.025734764669650807 -0.017899728425244527 11.116277930430241 -0.011167711369096726 0.027914698412290027 -0.048095702223303144 0.01133134075876358 -0.04085840728619766 0.015011280706335972 0.005848765139697151 -0.007633106398590193 4.78397301785954 -0.0014745346916263593 0.015766802102345313 -0.032958915597998545 -0.007555061185245495 0.03740623066592687 0.030247849885544555 0.04241915926734217 0.03511843298962499 -5.612741456395323 0.04197442226298255 0.007806995328835028 -6.722064214353336 -0.044132743704153515 0.033358474104001605 -6.770577071548194 0.012511857384732556 0.037010227046513744 0.024771904305458097 0.04866665785287961 -0.014491861115269525 8.036453902577277 3.4493468533243523 -19.185831051164342 -0.03593685351590823 10.377777016808656 0.024592992024622017 -5.6318657274565735 -15.609956004154697 3.2158782623685616 0.0020031999949774136 0.04431924592015149 0.01593891570419263 0.04782621000103035 4.7359003012646275 -0.020662617645943165 12.467009639008376 -8.279458404160428 6.884321923035248 -0.007490720772861444 46.33645284629891 0.021474848593074008 -4.368046365563039 -14.758110396522552 -3.833516490117422 -0.02490821764905382 -0.022302781316149184 -0.0034331301402392516 -0.012362296787708114 -10.76688435971338 -0.023678437556314543 
-0.031578865516153944 0.04741357142243255 0.01993265259556172 0.03479463633960567 -0.01356479965248324 -0.010333448867523602 5.581562017381194 3.0040578760399277 -2.3406198532162015 -0.7492606003073226 3.480270297692123 0.40890843361462265 -0.6148209151483166 -1.0833244641196529 0.7298237288698689 -0.31843957470481216 -0.5318305451851388 -0.28802426661425135 0.17101529231387536 11.712133049773334 -1.7314664567217013 0.41346853946351664 -0.5637918187317084 -3.398297862094163 1.0043528632804226 -16.943708553691458 -0.38081526059440873 -9.690348386193975 3.3782898776480805 -18.992700211800415 78.01079797261848 0.762454497777473 -2.8929937535347467 3.3370812138616404 7.033126117525715 63.95745066125157 17.15301186592715 -0.3639513410592961 -3.2843605415854285 4.482963458600603 -0.12979186430538311 -1.5951302059961268 0.029846960305426086 0.002391039621938065 -56.19709904861438 -0.0002769900624218427 0.005309562866493555 -56.21898792441116 -38.73887233335774 -0.01810064381639457 0.03536934683150095 -0.0037950608750654505 0.0003053523458392557 -0.04001128225957122 0.038059855962472404 -0.006058720650952929 -0.00500767688354866 -36.72898123217727 -0.0005171335240448835 -0.03728215940257001 -0.04763267906146154 -0.011386709915783423 0.0066101677260141465 0.021804674694214637 0.00898508518127156 0.017354092338712834 -19.709300524973603 0.03261686427304723 0.021000200090556018 0.019553678920364505 0.0207286736769337 0.03128282995072184 0.044104422677559256 0.004989491519766966 0.005149336001795745 24.025944526824805 0.003730787480943878 0.02342819884850861 28.897465346406825 0.028362227346021063 0.031799235352297464 28.824387752247365 -0.0299294003092585 0.02325277670842334 8.978106383189049 2.2715902145594047 15.789696710643522 -74.46057505588095 13.693873264489026 -5.680084666355553 1.3803890926682276 8.113484617238969 -46.655227559402626 -19.854978521155914 -0.2352185378740186 0.7832949475240737 -0.438355050598423 0.10179962557308136 -8.09042012211517 -0.011623716029500037 -0.014346742112243795 44.55736217320853 0.007336802457126508 0.0233307548453872 44.54293035966473 12.427997839297415 -0.025537593296208586 -0.012375299761513928 -0.0428209818775374 -0.04320534593815815 -0.011808110868518209 -0.01270918238972043 -0.011273428364609919 0.047114168042927417 11.066930916667525 0.014374488098104411 -0.03656705806733529 -0.03174245259986629 -0.016585583932097758 -0.02941607346221442 -0.034079469309199986 0.03420627504024788 -0.010024929866975063 4.813899252924699 0.019930134031459584 -0.038055676227243755 -0.012457938303393267 0.013275797548211258 0.038621878746818 -0.019072299800786577 0.007056980932689808 0.01169183594026727 -5.570669438210336 0.020092359841018544 0.014167820809493194 -6.756472271083885 0.0356994346928966 0.006109601640313611 -6.747587204122795 -0.02763736353331855 -0.01900374372445185 -0.02803874424762647 -0.018832566838626448 -0.016524113685100702 8.015804676187763 3.4682145026570343 -19.185474431356653 -0.00779281613235558 10.385685166479243 -0.012214929899030658 -5.601788682796901 -15.642267191748068 3.149659649715275 0.0044490746441096145 0.0020236969286109947 0.012125548518582482 -0.026461712557183308 4.679856981708566 0.026285646013775966 12.455358240694197 -8.247010609726138 6.859529267228276 0.01739244898578513 46.372467044880615 -0.033774172436231154 -4.329644995015557 -14.742083225844258 -3.826161631320223 0.007720521092749903 0.000530043831296233 0.008252027722773843 -0.00035141208783032846 -10.70024347452258 -0.03389868179694433 
0.04836127314467997 0.046114519917162755 -0.0166368382430155 0.01956905976600369 -0.03117312994331932 0.021055924220902474 5.3459766710956895 3.000666760743422 -2.2362787942973323 -0.7604334503107112 3.55863195273225 0.41504026155393736 -0.5692902440126004 -1.1087206818965998 0.8230615020387084 -0.3271022027120625 -0.5062203115098228 -0.2725687186135577 0.17249131150060568 11.99234008962911 -1.7478453014153192 0.47428994254747997 -0.5772500655767355 -3.6258214818874666 1.0793607021854867 -16.966698699964216 -0.3268182707024806 -9.788409861791376 3.3399233800163652 -19.04693542670355 76.84183400716549 0.4188141968119716 -2.029557248233114 5.15927492243154 6.863576039824432 68.78983973138116 17.328107017515578 -0.4641581595097465 -3.8072647604109413 4.480801365943957 -0.09285299371327771 -1.618244500961759 -0.04961995686080034 -0.010914073183341049 -56.23262776882515 -0.02199679649496441 -0.0014482428803802652 -56.24035770604386 -38.76361579744196 0.03282940366388295 -0.037397153676559255 0.020203279318273985 -0.023699664652322282 -0.02980489798435155 -0.04447610772084533 0.02324099377596208 0.016425295869349994 -36.718667804740896 -0.047501578945266125 -0.046902206666212726 0.0030653921130753947 -0.005148358629361404 -0.01554086279755865 0.02432138872533684 -0.007811807486685077 -0.014002537837339324 -19.774251535436406 -0.03281032261662715 0.036280355767254385 0.019114160778279737 -0.01766568093228671 0.020121551176606273 -0.023316995127305916 0.011189177805179218 -0.003006529008712559 24.032272002750815 -0.009270635506549059 0.011600538134170117 28.87824174083031 -0.0003481577281621331 -0.03864020529629647 28.843039493517313 0.015509434175442007 0.03506665438562632 9.038876292104796 2.281798090785995 15.915086389297723 -74.01241632101545 13.226571472000362 -5.767808982188791 0.43348906200676895 8.27162248350998 -47.50272778186165 -19.990431538295603 -0.027173079117775847 0.46223080048375637 -0.5233692632212102 0.08527352872530783 -8.097130246759695 0.005914080912596075 -0.049757614392067016 44.5953113925114 0.018965061835976408 0.009364261024981531 44.517610043038715 12.498644513201215 -0.04166858325537208 -0.005665149038936254 -0.03718783462759005 0.03703062141475531 -0.0343597711676693 0.026370559653468805 -0.018836676619774707 0.0016257584767145348 11.100765007848668 -0.026561548582021248 0.020350827063006238 0.0024840824456967715 -0.015249910483682268 -0.01595864668704859 -0.02771413799352635 0.02340038937108609 -0.004852665348767684 4.745620260745965 -0.016901145787019883 -0.0008821273485495462 -0.04029274438321769 0.007835116784219115 -0.003152056869988564 -0.0072988978448144 -0.041501479466587644 0.04646195685241042 -5.593618027083978 -0.04834836591525675 0.001515880719831207 -6.706758124258235 0.02208327180069976 0.01490417775068997 -6.69756936085132 -0.003380100256457115 0.007327186073558035 -0.020809436806156587 -0.016731871596560567 -0.040251155998086305 8.03073764362397 3.51151688914759 -19.253266091940066 0.02360075620284038 10.377522352545352 0.054445231114554765 -5.637335392054091 -15.671869228324095 3.218394143066887 0.026185349857128042 0.02230299862939936 -0.02117588976800036 0.0062318118595118726 4.722668661749059 0.0032243409740606863 12.46515029198979 -8.278077240571399 6.906888198858062 -0.00742398161186758 46.35136112447609 -0.0006788009507960105 -4.322635985907684 -14.69871870944971 -3.8831322215707726 -0.029169928093847965 -0.01912084200760204 -0.001705323509179676 0.0019044350042336739 -10.733136588184687 -0.04727649494464389 
